<svg xmlns="http://www.w3.org/2000/svg" xmlns:xlink="http://www.w3.org/1999/xlink" width="100" height="100" viewBox="0 0 100 100"><circle stroke="none" fill="#ffe0b3" r="48%" cx="50%" cy="50%"></circle><g transform="translate(50 50) scale(0.69 0.69) rotate(0) translate(-50 -50)" style="fill:#000000"><svg fill="#000000" xmlns="http://www.w3.org/2000/svg" data-name="Ebene 1" viewBox="0 0 100 100" x="0px" y="0px"><title>p-</title><path d="M63.37,13.79c-7.53-2.13-14.42-2.7-20.51-1.68a21,21,0,0,0-11.07,5.13,21.42,21.42,0,0,0-5.34,8.66h0l-.24.68c-.25.74-.52,1.47-.79,2.21A37.65,37.65,0,0,0,24,33.34a10.87,10.87,0,0,0-.11,4.5c.12.61.26,1.14.4,1.62a3.54,3.54,0,0,1-.13,3.2,23.33,23.33,0,0,1-2.94,4.53c-.16.2-.35.4-.54.61-1,1.12-2.47,2.66-2,4.69A4.81,4.81,0,0,0,21.49,56l.22.08a2.72,2.72,0,0,1,.6.26.55.55,0,0,1,0,.12c0,.42-.07,1-.12,1.49-.13,1.14-.21,1.83.16,2.38a12.46,12.46,0,0,0,1,1.18,2.5,2.5,0,0,0-.53,1.78A4.08,4.08,0,0,0,24,65.18a6.83,6.83,0,0,1,.65.83,8.26,8.26,0,0,1-.28.94,8.61,8.61,0,0,0-.59,3.11c.19,2.74,2.37,4.57,6.47,5.43a31.37,31.37,0,0,0,7.28.46c.51,0,1.12,0,1.5,0A16.38,16.38,0,0,1,40,79.15c.12.55.24,1.1.38,1.59.6,2.2,1.78,6.71,1.79,6.71l.38,1.46,30-14.28-.36-1.06c0-.06-2.33-7-.56-11.65a39.68,39.68,0,0,1,3.6-6.29C78,51.38,81,46.58,81.37,41.9,81.83,35.12,81,18.79,63.37,13.79Zm15.5,27.94c-.28,4-3.19,8.55-5.76,12.54A41.31,41.31,0,0,0,69.29,61c-1.66,4.34-.44,10,.2,12.28l-25.32,12c-.4-1.51-1-3.86-1.41-5.27-.13-.46-.24-1-.35-1.48A15.69,15.69,0,0,0,41,74.25c-.41-.69-1.07-.82-2.34-.82l-1.17,0a28.29,28.29,0,0,1-6.7-.41c-4.33-.91-4.44-2.6-4.48-3.15a6.71,6.71,0,0,1,.46-2.15,5.93,5.93,0,0,0,.42-1.8,3.91,3.91,0,0,0-1.26-2.39c-.15-.17-.35-.41-.47-.58a2.28,2.28,0,0,1,.48-.51L27,61.6l-1-1c-.53-.53-1.14-1.17-1.43-1.5,0-.24.06-.62.09-.89a15.07,15.07,0,0,0,.14-1.77,2.82,2.82,0,0,0-2.27-2.73l-.19-.07a2.31,2.31,0,0,1-1.29-1.73c-.17-.72.66-1.62,1.39-2.41.22-.24.44-.47.63-.7a26.33,26.33,0,0,0,3.24-5,5.94,5.94,0,0,0,.32-5c-.12-.42-.25-.89-.35-1.43a8.07,8.07,0,0,1,.09-3.45,36,36,0,0,1,1.37-4.24c.29-.76.57-1.52.82-2.29.07-.22.15-.43.22-.64a19.1,19.1,0,0,1,4.7-7.68,18.92,18.92,0,0,1,9.77-4.49c5.72-1,12.25-.4,19.41,1.63C78,20.54,79.4,34.06,78.87,41.73ZM52.72,26.05h-2.5V21.14h2.5ZM42,30.48,38.53,27l1.77-1.77,3.47,3.47Zm-7.58,6.45h4.91v2.5H34.42Zm29.18,0h4.91v2.5H63.6Zm-2.67-6.45-1.76-1.76,3.46-3.47L64.4,27Zm-9.46-2.22A9.92,9.92,0,0,0,46,46.42v.83a5.48,5.48,0,0,0,1.84,4.1v1.26a3.68,3.68,0,1,0,7.35,0V51.35A5.48,5.48,0,0,0,57,47.25v-.83a9.91,9.91,0,0,0-5.51-18.16Zm0,25.53a1.18,1.18,0,0,1-1.17-1.16,5.76,5.76,0,0,0,1.18.13,5.5,5.5,0,0,0,1.16-.13A1.17,1.17,0,0,1,51.46,53.79Zm3.66-9.16-.64.36v2.26a3,3,0,0,1-6,0V45l-.63-.36a7.42,7.42,0,1,1,7.3,0Z"></path></svg></g></svg>