<svg xmlns="http://www.w3.org/2000/svg" xmlns:xlink="http://www.w3.org/1999/xlink" width="100" height="100" viewBox="0 0 100 100"><circle stroke="none" fill="#ffe0b3" r="48%" cx="50%" cy="50%"></circle><g transform="translate(50 50) scale(0.69 0.69) rotate(0) translate(-50 -50)" style="fill:#000000"><svg fill="#000000" xmlns="http://www.w3.org/2000/svg" viewBox="0 0 64 64" x="0px" y="0px"><g><path d="M20,30a1,1,0,0,0,0,2,1,1,0,0,1,1,1,1,1,0,0,0,2,0A3,3,0,0,0,20,30Z"></path><path d="M51,9a7,7,0,1,0-13.315,3H7V62H57V12H50.315A6.955,6.955,0,0,0,51,9ZM49.471,30H38.529L44,17.5ZM44,4a4.987,4.987,0,0,1,3.612,8.439c-.055.058-.112.115-.17.17a4.969,4.969,0,0,1-.576.476c-.061.043-.126.083-.189.123a4.968,4.968,0,0,1-.677.368c-.056.025-.113.043-.169.066a4.935,4.935,0,0,1-.8.248c-.03.007-.06.009-.09.015a4.718,4.718,0,0,1-1.884,0c-.03-.006-.06-.008-.09-.015a4.935,4.935,0,0,1-.8-.248c-.056-.023-.113-.041-.169-.066a4.968,4.968,0,0,1-.677-.368c-.063-.04-.128-.08-.189-.123a4.969,4.969,0,0,1-.576-.476c-.058-.055-.115-.112-.17-.17A4.987,4.987,0,0,1,44,4ZM9,14H31V36H26.32c.012-.025.02-.052.032-.077.079-.171.15-.346.215-.524.022-.059.045-.117.065-.176.06-.177.11-.359.155-.542.016-.061.034-.121.047-.183.041-.187.072-.378.1-.571.008-.057.02-.114.027-.173A7.219,7.219,0,0,0,27,33a7,7,0,0,0-14,0,7.219,7.219,0,0,0,.042.754c.007.059.019.116.027.175.026.192.056.382.1.569.014.062.033.123.048.184.045.183.1.364.155.541.02.059.043.117.065.176.065.178.136.353.215.524.012.025.02.052.032.077H9ZM24.9,33.953c-.027.137-.076.268-.114.4a5.1,5.1,0,0,1-.153.492c-.062.155-.145.3-.222.45-.066.126-.127.254-.2.373a4.965,4.965,0,0,1-.323.433c-.091.114-.177.231-.277.336-.055.058-.112.115-.17.17a4.969,4.969,0,0,1-.576.476c-.061.043-.126.083-.189.123a4.968,4.968,0,0,1-.677.368c-.056.025-.113.043-.169.066a4.935,4.935,0,0,1-.8.248c-.03.007-.06.009-.09.015a4.718,4.718,0,0,1-1.884,0c-.03-.006-.06-.008-.09-.015a4.935,4.935,0,0,1-.8-.248c-.056-.023-.113-.041-.169-.066a4.968,4.968,0,0,1-.677-.368c-.063-.04-.128-.08-.189-.123a4.969,4.969,0,0,1-.576-.476c-.058-.055-.115-.112-.17-.17-.1-.1-.186-.222-.277-.335a5.135,5.135,0,0,1-.323-.434c-.076-.119-.137-.247-.2-.372-.078-.149-.16-.3-.223-.451a4.993,4.993,0,0,1-.152-.491c-.039-.134-.088-.266-.115-.4a5,5,0,1,1,9.808,0ZM25.471,54H14.529L20,41.5ZM31,60H9V38h6.111a6.984,6.984,0,0,0,3.428,1.844L12.084,54.6A1,1,0,0,0,13,56H27a1,1,0,0,0,.916-1.4L21.461,39.844A6.984,6.984,0,0,0,24.889,38H31Zm24,0H33V38H55Zm0-24H33V14h6.111a6.984,6.984,0,0,0,3.428,1.844L36.084,30.6A1,1,0,0,0,37,32H51a1,1,0,0,0,.916-1.4L45.461,15.844A6.984,6.984,0,0,0,48.889,14H55Z"></path><path d="M44,8a1,1,0,0,1,1,1,1,1,0,0,0,2,0,3,3,0,0,0-3-3,1,1,0,0,0,0,2Z"></path></g></svg></g></svg>